<svg xmlns="http://www.w3.org/2000/svg" xmlns:xlink="http://www.w3.org/1999/xlink" width="500" zoomAndPan="magnify" viewBox="0 0 375 374.999991" height="500" preserveAspectRatio="xMidYMid meet" version="1.0">
        <path fill="#3752B3" d="M 163.808594 288.1875 L 124.5 314.015625 C 120.984375 316.324219 116.347656 313.578125 116.683594 309.382812 L 120.496094 261.847656 C 120.796875 258.09375 124.957031 255.972656 128.171875 257.941406 L 163.671875 279.648438 C 166.835938 281.585938 166.910156 286.152344 163.808594 288.1875 Z M 270.675781 218.664062 C 268.695312 221.902344 264.464844 222.921875 261.222656 220.941406 L 260.957031 220.777344 L 250.988281 214.679688 L 240.660156 208.367188 C 237.421875 206.382812 236.402344 202.15625 238.386719 198.914062 L 348.589844 18.707031 C 342.628906 13.648438 335.863281 9.511719 328.507812 6.515625 L 218.339844 186.65625 C 218.160156 186.949219 217.953125 187.21875 217.738281 187.476562 C 215.757812 190.117188 212.054688 190.871094 209.175781 189.113281 L 200.632812 183.886719 L 188.324219 176.359375 C 185.085938 174.375 184.066406 170.144531 186.046875 166.90625 L 287.519531 0.984375 L 260.042969 0.875 L 166.003906 154.644531 C 165.824219 154.941406 165.621094 155.207031 165.410156 155.464844 C 163.429688 158.109375 159.71875 158.867188 156.839844 157.101562 L 152.855469 154.667969 L 135.988281 144.351562 C 132.75 142.371094 131.730469 138.140625 133.710938 134.902344 L 215.777344 0.707031 L 75.894531 0.167969 C 34.75 0.00390625 1.269531 33.230469 1.109375 74.375 L 0.242188 299.183594 C 0.0820312 340.328125 33.308594 373.808594 74.449219 373.964844 L 299.261719 374.835938 C 340.402344 374.992188 373.886719 341.769531 374.042969 300.625 L 374.910156 75.816406 C 374.941406 68.078125 373.789062 60.609375 371.628906 53.589844 L 270.675781 218.664062 " fill-opacity="1" fill-rule="nonzero"/>
</svg>